<?xml version="1.0" encoding="utf-8"?>
<!-- Generator: Adobe Illustrator 16.0.3, SVG Export Plug-In . SVG Version: 6.00 Build 0)  -->
<!DOCTYPE svg PUBLIC "-//W3C//DTD SVG 1.1//EN" "http://www.w3.org/Graphics/SVG/1.1/DTD/svg11.dtd">
<svg version="1.1" id="Capa_1" xmlns="http://www.w3.org/2000/svg" xmlns:xlink="http://www.w3.org/1999/xlink" x="0px" y="0px"
	 width="595.28px" height="841.89px" viewBox="0 0 595.28 841.89" enable-background="new 0 0 595.28 841.89" xml:space="preserve">
<g>
	<g>
		<path fill-rule="evenodd" clip-rule="evenodd" fill="#FEFEFE" d="M111.325,408.758c0-57.519,0-115.025,0-172.543
			c131.46,0,262.925,0,394.385,0c0,61.623,0,123.246,0,184.868c-43.888-42.799-86.536-87.018-132.519-127.446
			c-11.729-10.303-34.001-8.63-51.429-12.457c3.214,18.848,1.648,40.56,10.814,55.846c12.306,20.509,32.899,36.047,49.936,53.715
			c-2.72,6.005-5.446,12.011-8.166,18.017C286.673,408.758,198.999,408.758,111.325,408.758z"/>
		<path fill-rule="evenodd" clip-rule="evenodd" fill="#FEFEFE" d="M505.71,445.732c0,61.623,0,123.246,0,184.868
			c-131.46,0-262.925,0-394.385,0c0-57.519,0-115.024,0-172.543c88.697,0,177.4,0,266.097,0c1.053,6.343,2.101,12.673,3.153,19.016
			c-14.762,15.863-33.122,29.753-43.25,48.167c-9.695,17.633-10.839,39.959-15.737,60.227c18.885-5.188,42.456-4.971,55.804-16.537
			C422.128,530.126,463.225,487.123,505.71,445.732z"/>
		<path fill-rule="evenodd" clip-rule="evenodd" fill="#050505" d="M505.71,445.732c-42.485,41.391-83.582,84.395-128.318,123.197
			c-13.348,11.566-36.919,11.35-55.804,16.537c4.898-20.268,6.042-42.594,15.737-60.227c10.128-18.414,28.488-32.304,43.25-48.167
			c-1.053-6.343-2.101-12.673-3.153-19.016c-88.697,0-177.4,0-266.097,0c0-16.429,0-32.87,0-49.299c87.674,0,175.348,0,263.022,0
			c2.72-6.006,5.446-12.012,8.166-18.017c-17.036-17.668-37.63-33.207-49.936-53.715c-9.166-15.286-7.601-36.998-10.814-55.846
			c17.428,3.827,39.7,2.154,51.429,12.457c45.982,40.428,88.631,84.647,132.519,127.446
			C505.71,429.303,505.71,437.512,505.71,445.732z"/>
	</g>
</g>
</svg>
